<?xml version="1.0" encoding="UTF-8" standalone="no"?>
<!-- Created with Inkscape (http://www.inkscape.org/) -->

<svg
   width="54.124229mm"
   height="58.77713mm"
   viewBox="0 0 54.124229 58.77713"
   version="1.1"
   id="svg5"
   sodipodi:docname="New document 1.2024_08_03_01_46_03.0.svg"
   inkscape:version="1.2 (1:1.2.1+202207142221+cd75a1ee6d)"
   xmlns:inkscape="http://www.inkscape.org/namespaces/inkscape"
   xmlns:sodipodi="http://sodipodi.sourceforge.net/DTD/sodipodi-0.dtd"
   xmlns="http://www.w3.org/2000/svg"
   xmlns:svg="http://www.w3.org/2000/svg">
  <sodipodi:namedview
     id="namedview7"
     pagecolor="#ffffff"
     bordercolor="#000000"
     borderopacity="0.25"
     inkscape:showpageshadow="2"
     inkscape:pageopacity="0.0"
     inkscape:pagecheckerboard="0"
     inkscape:deskcolor="#d1d1d1"
     inkscape:document-units="mm"
     showgrid="false"
     inkscape:zoom="1.0708779"
     inkscape:cx="553.28436"
     inkscape:cy="884.78808"
     inkscape:window-width="1920"
     inkscape:window-height="1016"
     inkscape:window-x="0"
     inkscape:window-y="27"
     inkscape:window-maximized="1"
     inkscape:current-layer="layer1" />
  <defs
     id="defs2" />
  <g
     inkscape:label="Layer 1"
     inkscape:groupmode="layer"
     id="layer1"
     transform="translate(-120.30479,-206.16097)">
    <rect
       style="fill:#ffffff;stroke:#000000;stroke-width:2.03959;stroke-linejoin:round;stroke-miterlimit:0;stroke-dasharray:none;paint-order:markers fill stroke"
       id="rect234-3-7-5-3-6-3"
       width="32.45705"
       height="32.45705"
       x="279.07941"
       y="94.480942"
       transform="matrix(0.79831043,0.60224617,-0.79831043,0.60224617,0,0)"
       inkscape:export-filename="Documents/schemer2/public/logo.svg"
       inkscape:export-xdpi="96"
       inkscape:export-ydpi="96" />
    <rect
       style="fill:#ffffff;stroke:#000000;stroke-width:2.03959;stroke-linejoin:round;stroke-miterlimit:0;stroke-dasharray:none;paint-order:markers fill stroke"
       id="rect234-3-7-56-7-5"
       width="32.45705"
       height="32.45705"
       x="271.62329"
       y="87.024796"
       transform="matrix(0.79831043,0.60224617,-0.79831043,0.60224617,0,0)" />
    <rect
       style="fill:#ffffff;fill-opacity:1;stroke:#000000;stroke-width:2.03959;stroke-linejoin:round;stroke-miterlimit:0;stroke-dasharray:none;paint-order:markers fill stroke"
       id="rect234-6-2-5-6"
       width="32.45705"
       height="32.45705"
       x="264.18039"
       y="79.581863"
       transform="matrix(0.79831043,0.60224617,-0.79831043,0.60224617,0,0)" />
    <path
       id="path1159-7-3-2"
       style="fill:#000000;fill-opacity:1;stroke:#000000;stroke-width:0.616552;stroke-linejoin:round;stroke-miterlimit:0;stroke-dasharray:none;paint-order:markers fill stroke"
       d="m 151.33356,219.05723 a 2.0085521,2.462304 89.999925 0 0 -1.95699,0.70024 2.0085521,2.462304 89.999925 0 0 0.26694,2.83197 2.0085521,2.462304 89.999925 0 0 0.85589,0.38763 v 7.24225 a 2.0085521,2.462304 89.999925 0 0 -0.68564,0.24049 l -9.73098,-6.80437 a 2.0085521,2.462304 89.999925 0 0 -0.65631,-2.32407 2.0085521,2.462304 89.999925 0 0 -3.47209,0.21775 2.0085521,2.462304 89.999925 0 0 0.26695,2.83196 2.0085521,2.462304 89.999925 0 0 2.9161,0.17373 l 9.73133,6.80467 a 2.0085521,2.462304 89.999925 0 0 0.65631,2.32406 2.0085521,2.462304 89.999925 0 0 3.47209,-0.21774 2.0085521,2.462304 89.999925 0 0 -0.26694,-2.83195 2.0085521,2.462304 89.999925 0 0 -0.73746,-0.35014 v -7.30664 a 2.0085521,2.462304 89.999925 0 0 1.12284,-0.60539 2.0085521,2.462304 89.999925 0 0 -0.26694,-2.83195 2.0085521,2.462304 89.999925 0 0 -1.5151,-0.4825 z" />
  </g>
</svg>
